<svg xmlns="http://www.w3.org/2000/svg" width="47.758" height="22.633" viewBox="0 0 47.758 22.633">
    <defs>
        <style>
            .cls-1{fill:#fff}
        </style>
    </defs>
    <g id="그림2" transform="translate(0 -134.68)">
        <g id="그룹_457" data-name="그룹 457" transform="translate(0 134.68)">
            <g id="그룹_456" data-name="그룹 456">
                <path id="패스_479" d="M42.687 134.68a5.067 5.067 0 0 0-4.247 7.836l-5.478 5.478a5.056 5.056 0 0 0-5.618.057l-5.535-5.536a5.071 5.071 0 1 0-8.495 0l-5.479 5.479a5.078 5.078 0 1 0 1.482 1.482L14.8 144a5.054 5.054 0 0 0 5.531 0l5.565 5.566a5.071 5.071 0 1 0 8.551-.087L39.922 144a5.07 5.07 0 1 0 2.765-9.318zM5.071 155.217a2.975 2.975 0 1 1 2.975-2.975 2.978 2.978 0 0 1-2.975 2.975zm12.491-12.491a2.975 2.975 0 1 1 2.975-2.975 2.978 2.978 0 0 1-2.975 2.975zM30.2 155.217a2.975 2.975 0 1 1 2.975-2.975 2.978 2.978 0 0 1-2.975 2.975zm12.491-12.491a2.975 2.975 0 1 1 2.975-2.975 2.978 2.978 0 0 1-2.979 2.975z" class="cls-1" data-name="패스 479" transform="translate(0 -134.68)"/>
            </g>
        </g>
        <g id="그룹_459" data-name="그룹 459" transform="translate(12.568 147.249)">
            <g id="그룹_458" data-name="그룹 458">
                <path id="패스_480" d="M138.662 269.734a1.048 1.048 0 0 0-1.482 0l-2.132 2.132a1.048 1.048 0 1 0 1.482 1.482l2.132-2.132a1.048 1.048 0 0 0 0-1.482z" class="cls-1" data-name="패스 480" transform="translate(-134.741 -269.427)"/>
            </g>
        </g>
        <g id="그룹_461" data-name="그룹 461" transform="translate(30.961 140.554)">
            <g id="그룹_460" data-name="그룹 460">
                <path id="패스_481" d="M335.849 197.956a1.048 1.048 0 0 0-1.482 0l-2.132 2.132a1.048 1.048 0 1 0 1.482 1.482l2.132-2.132a1.048 1.048 0 0 0 0-1.482z" class="cls-1" data-name="패스 481" transform="translate(-331.928 -197.649)"/>
            </g>
        </g>
    </g>
</svg>
