<svg xmlns="http://www.w3.org/2000/svg" width="37.218" height="47.112" viewBox="0 0 37.218 47.112">
    <defs>
        <style>
            .cls-1{fill:#fff}.cls-2,.cls-3,.cls-5{fill:none}.cls-2,.cls-3{stroke:#fff}.cls-2{stroke-width:3px}.cls-4{stroke:none}
        </style>
    </defs>
    <g id="그룹_74" data-name="그룹 74" transform="translate(-23.483 -281.062)">
        <g id="그룹_35" data-name="그룹 35" transform="translate(25 282.561)">
            <path id="패스_20" d="M24.036 17.38v1.845c0 .1-.151.214-.291.272a.714.714 0 0 1-.694-.03l-1.3-1.3a1.382 1.382 0 0 0-1.953 0l-1.662 1.663a1.378 1.378 0 0 0 0 1.954l1.3 1.3c.09.09.125.169.133.15a.472.472 0 0 1-.3.071h-1.808C16.614 23.3 16 24.348 16 25.051v1.906a1.519 1.519 0 0 0 1.461 1.461h1.81c.118 0 .2.194.221.232a.724.724 0 0 1-.058.718l-1.3 1.3a1.382 1.382 0 0 0 0 1.953l1.663 1.663a1.384 1.384 0 0 0 1.953 0l1.3-1.3c.057-.057.25-.061.471.031.307.128.514.37.514.516v1.461c0 .056 0 .112-.007.167a1.252 1.252 0 0 0 .262 1 .963.963 0 0 0 .726.3h2.352a1 1 0 0 0 .734-.292 1.412 1.412 0 0 0 .318-1.079v-1.556c0-.153.2-.4.5-.525.177-.073.357-.083.419-.022l1.3 1.3a1.383 1.383 0 0 0 1.953 0l1.663-1.663a1.38 1.38 0 0 0 0-1.953l-1.3-1.3c-.094-.094-.126-.16-.133-.15a.472.472 0 0 1 .3-.071h1.88c.847 0 1.461-1.043 1.461-1.747v-2.35c0-.7-.614-1.747-1.461-1.747h-1.88c-.2 0-.283-.061-.286-.037a.4.4 0 0 1 .123-.184l1.3-1.3a1.38 1.38 0 0 0 0-1.953l-1.663-1.663a1.382 1.382 0 0 0-1.953 0l-1.3 1.3a.628.628 0 0 1-.635.039c-.13-.054-.281-.16-.281-.281V17.38A1.383 1.383 0 0 0 27.038 16h-1.621a1.382 1.382 0 0 0-1.381 1.38zm1.461.08h1.461v1.765a1.79 1.79 0 0 0 1.183 1.631 2.058 2.058 0 0 0 2.227-.355l1.249-1.249 1.549 1.55-1.248 1.249a1.588 1.588 0 0 0-.445 1.751 1.7 1.7 0 0 0 1.641.963h1.739a.8.8 0 0 1 .14.286v2.34a.8.8 0 0 1-.141.3h-1.738a1.7 1.7 0 0 0-1.641.963 1.589 1.589 0 0 0 .445 1.751l1.248 1.249-1.55 1.546-1.249-1.249a1.813 1.813 0 0 0-2.011-.294 2.138 2.138 0 0 0-1.4 1.875v1.461H25.5v-1.461a2.146 2.146 0 0 0-1.417-1.866 1.859 1.859 0 0 0-2.063.286L20.77 33.2l-1.55-1.55 1.247-1.25a2.132 2.132 0 0 0 .376-2.31 1.722 1.722 0 0 0-1.571-1.135l-1.763.007c-.018-.009-.048-.037-.048-.007v-1.892a.8.8 0 0 1 .141-.3h1.669a1.7 1.7 0 0 0 1.642-.963 1.589 1.589 0 0 0-.446-1.751L19.22 20.8l1.55-1.55 1.247 1.25a2.109 2.109 0 0 0 2.287.347 1.793 1.793 0 0 0 1.196-1.622z" class="cls-1" data-name="패스 20" transform="translate(-9.499 -4.5)"/>
            <path id="패스_22" d="M16.8 0c.537.033 6.391 7.132 16.6 5.762C38.014 39.014 17.137 44 16.8 44.121S-3.955 39.637.527 6.26C9.992 6.758 16.266-.033 16.8 0z" class="cls-2" data-name="패스 22" transform="translate(.115)"/>
            <g id="타원_2" class="cls-3" data-name="타원 2" transform="translate(13.5 18.499)">
                <circle cx="3.5" cy="3.5" r="3.5" class="cls-4"/>
                <circle cx="3.5" cy="3.5" r="3" class="cls-5"/>
            </g>
        </g>
    </g>
</svg>
