<svg xmlns="http://www.w3.org/2000/svg" id="dashboard" width="39.101" height="31.082" viewBox="0 0 39.101 31.082">
    <defs>
        <style>
            .cls-1{fill:#fff}
        </style>
    </defs>
    <g id="그룹_2" data-name="그룹 2">
        <g id="그룹_1" data-name="그룹 1">
            <path id="패스_2" d="M214.289 123.946a1.527 1.527 0 0 0-1.94-.182c-2.285 1.558-13.749 9.391-14.981 10.623a4.582 4.582 0 0 0 6.48 6.48c1.232-1.232 9.065-12.7 10.623-14.981a1.528 1.528 0 0 0-.182-1.94zm-12.6 14.761a1.527 1.527 0 0 1-2.16-2.16c.479-.473 3.733-2.794 7.738-5.578-2.784 4.004-5.106 7.259-5.579 7.737z" class="cls-1" data-name="패스 2" transform="translate(-181.058 -118.076)"/>
            <path id="패스_3" d="M7.044 79.154l-1.886.92a16.418 16.418 0 0 1-1.03-13.88l2.161 1.036a1.527 1.527 0 1 0 1.321-2.755l-2.133-1.023a16.517 16.517 0 0 1 12.546-7.828v2.3a1.527 1.527 0 1 0 3.055 0v-2.3a16.307 16.307 0 0 1 5.252 1.384 1.527 1.527 0 1 0 1.257-2.784A19.534 19.534 0 0 0 3.312 82.9a1.527 1.527 0 0 0 1.939.524L8.383 81.9a1.527 1.527 0 1 0-1.339-2.746z" class="cls-1" data-name="패스 3" transform="translate(0 -52.499)"/>
            <path id="패스_4" d="M397.589 192.393a1.527 1.527 0 1 0-2.784 1.257 16.442 16.442 0 0 1-.657 14.815l-1.969-.937a1.527 1.527 0 0 0-1.313 2.758l3.208 1.527a1.527 1.527 0 0 0 1.926-.53 19.5 19.5 0 0 0 1.589-18.889z" class="cls-1" data-name="패스 4" transform="translate(-360.211 -180.879)"/>
        </g>
    </g>
</svg>
