<svg xmlns="http://www.w3.org/2000/svg" id="report" width="39.5" height="45.142" viewBox="0 0 39.5 45.142">
    <defs>
        <style>
            .cls-1{fill:#fff}
        </style>
    </defs>
    <path id="패스_23" d="M43.672 0H18.234a1.165 1.165 0 0 0-.745.258l-2.5 2.091L13.147.8A3.68 3.68 0 0 0 8.6.8a2.4 2.4 0 0 0 0 3.81l1.841 1.55-4.907 4.108a.816.816 0 0 0-.309.624V44.26a.979.979 0 0 0 1.053.882h31.95a.979.979 0 0 0 1.053-.882v-3.2h4.391a.979.979 0 0 0 1.053-.882V.882A.979.979 0 0 0 43.672 0zM10.085 2.051a1.271 1.271 0 0 1 1.572 0L13.5 3.6l-1.57 1.313-1.845-1.545a.829.829 0 0 1 0-1.317zM42.619 39.3H12.45v-2.949a.979.979 0 0 0-1.05-.881.979.979 0 0 0-1.053.882v3.828a.833.833 0 0 0 .383.68 1.179 1.179 0 0 0 .67.2h25.775v2.317H7.331v-32.12l3.013-2.522V28.6a.979.979 0 0 0 1.053.882.979.979 0 0 0 1.053-.882V7.842l.906.758a4.747 4.747 0 0 0 5.878 0 3.1 3.1 0 0 0 0-4.922l-.076-.064a1.2 1.2 0 0 0-1.489 0 .784.784 0 0 0 0 1.247l.076.064a1.529 1.529 0 0 1 0 2.428 2.342 2.342 0 0 1-2.9 0L13.419 6.16l5.251-4.4h23.949z" class="cls-1" data-name="패스 23" transform="translate(-5.225)"/>
    <path id="패스_24" d="M179 68.234h14.083a1.053 1.053 0 0 0 1.053-1.053v-5.373a1.053 1.053 0 0 0-1.053-1.053H179a1.053 1.053 0 0 0-1.053 1.053v5.373A1.053 1.053 0 0 0 179 68.234zm1.053-5.373h11.977v3.267h-11.978z" class="cls-1" data-name="패스 24" transform="translate(-159.758 -54.357)"/>
    <path id="패스_26" d="M179 181.072h14.083a1.053 1.053 0 0 0 0-2.106H179a1.053 1.053 0 1 0 0 2.106z" class="cls-1" data-name="패스 26" transform="translate(-167.758 -161.312)"/>
    <path id="패스_27" d="M179 230.486h9.954a1.053 1.053 0 0 0 0-2.106H179a1.053 1.053 0 0 0 0 2.106z" class="cls-1" data-name="패스 27" transform="translate(-167.758 -206.403)"/>
    <path id="패스_29" d="M179 308.157h14.083a1.053 1.053 0 1 0 0-2.106H179a1.053 1.053 0 1 0 0 2.106z" class="cls-1" data-name="패스 29" transform="translate(-167.758 -278.28)"/>
    <path id="패스_30" d="M179 357.572h9.954a1.053 1.053 0 1 0 0-2.106H179a1.053 1.053 0 1 0 0 2.106z" class="cls-1" data-name="패스 30" transform="translate(-167.758 -323.373)"/>
    <path id="패스_32" d="M55.861 358.438a1.052 1.052 0 1 0-.454 1.318 1.061 1.061 0 0 0 .454-1.318z" class="cls-1" data-name="패스 32" transform="translate(-48.717 -326.492)"/>
</svg>
